<svg width="64" height="64" viewBox="0 0 72 72" fill="none" xmlns="http://www.w3.org/2000/svg">
  <rect x="2" y="2" width="68" height="68" rx="19" fill="#FFFDF8" stroke="#1B2236" stroke-width="3"/>
  <path d="M53 16C47 12 40 11 33 13C21 16 14 25 14 36C14 48 23 58 36 59C43 60 49 58 54 54" stroke="#1B2236" stroke-width="5" stroke-linecap="round"/>
  <path d="M48 22C44 19 38 18 33 20C27 21 24 25 25 29C26 34 31 35 37 36C43 37 47 39 47 44C47 49 42 52 36 52C31 52 27 50 24 47" stroke="#7666DD" stroke-width="4" stroke-linecap="round"/>
  <circle cx="28" cy="25" r="4" fill="#82D8B4" stroke="#1B2236" stroke-width="2"/>
  <circle cx="44" cy="43" r="3.5" fill="#9C8CFF" stroke="#1B2236" stroke-width="2"/>
  <rect x="53" y="50" width="8" height="12" rx="2" fill="#FF8D82"/>
</svg>
